CATALOG 0000000000000
FILE "ROM.iso" BINARY
  TRACK 01 MODE1/2048
    INDEX 01 00:00:00
FILE "2.bin" BINARY
  TRACK 02 AUDIO
    INDEX 00 00:00:00
    INDEX 01 00:02:00
FILE "3.bin" BINARY
  TRACK 03 AUDIO
    INDEX 00 00:00:00
    INDEX 01 00:02:00
FILE "4.bin" BINARY
  TRACK 04 AUDIO
    INDEX 00 00:00:00
    INDEX 01 00:02:00
FILE "5.bin" BINARY
  TRACK 05 AUDIO
    INDEX 00 00:00:00
    INDEX 01 00:02:00
FILE "6.bin" BINARY
  TRACK 06 AUDIO
    INDEX 00 00:00:00
    INDEX 01 00:02:00
FILE "7.bin" BINARY
  TRACK 07 AUDIO
    INDEX 00 00:00:00
    INDEX 01 00:02:00
